<?xml version="1.0" encoding="UTF-8"?>
<svg version="1.1" xmlns="http://www.w3.org/2000/svg" width="24" height="24">
<path d="M0 0 C0.8146875 0.00257812 1.629375 0.00515625 2.46875 0.0078125 C3.2834375 0.00523438 4.098125 0.00265625 4.9375 0 C6.96875 0.1328125 6.96875 0.1328125 7.96875 1.1328125 C8.33719198 4.16490879 8.39023329 7.10579617 7.96875 10.1328125 C5.96875 12.0703125 5.96875 12.0703125 3.96875 13.1328125 C3.96875 13.7928125 3.96875 14.4528125 3.96875 15.1328125 C1.98875 16.1228125 1.98875 16.1228125 -0.03125 17.1328125 C-0.03125 18.1228125 -0.03125 19.1128125 -0.03125 20.1328125 C1.61875 20.4628125 3.26875 20.7928125 4.96875 21.1328125 C4.96875 18.8228125 4.96875 16.5128125 4.96875 14.1328125 C5.95875 13.8028125 6.94875 13.4728125 7.96875 13.1328125 C7.99563151 14.77855816 8.01509123 16.42442663 8.03125 18.0703125 C8.04285156 18.98683594 8.05445313 19.90335938 8.06640625 20.84765625 C7.96875 23.1328125 7.96875 23.1328125 6.96875 24.1328125 C5.47136876 24.2307182 3.96932108 24.26256114 2.46875 24.2578125 C1.6540625 24.26039062 0.839375 24.26296875 0 24.265625 C-2.03125 24.1328125 -2.03125 24.1328125 -3.03125 23.1328125 C-3.10304964 21.61353212 -3.11517007 20.09113768 -3.09375 18.5703125 C-3.08472656 17.74402344 -3.07570312 16.91773437 -3.06640625 16.06640625 C-3.05480469 15.42832031 -3.04320312 14.79023438 -3.03125 14.1328125 C-2.04125 13.8028125 -1.05125 13.4728125 -0.03125 13.1328125 C-0.03125 12.4728125 -0.03125 11.8128125 -0.03125 11.1328125 C-1.02125 10.8028125 -2.01125 10.4728125 -3.03125 10.1328125 C-3.05814216 8.65374358 -3.07759621 7.17453767 -3.09375 5.6953125 C-3.10535156 4.87160156 -3.11695313 4.04789062 -3.12890625 3.19921875 C-2.99750338 0.41873396 -2.77471038 0.18142337 0 0 Z M0.96875 2.1328125 C0.30875 2.7928125 -0.35125 3.4528125 -1.03125 4.1328125 C-0.71083603 6.73561818 -0.71083603 6.73561818 -0.03125 9.1328125 C1.61875 8.8028125 3.26875 8.4728125 4.96875 8.1328125 C4.96875 6.4828125 4.96875 4.8328125 4.96875 3.1328125 C3.07695797 2.4513302 3.07695797 2.4513302 0.96875 2.1328125 Z " fill="#000000" transform="translate(3.03125,-0.1328125)"/>
<path d="M0 0 C0.8146875 0.00257812 1.629375 0.00515625 2.46875 0.0078125 C3.2834375 0.00523438 4.098125 0.00265625 4.9375 0 C6.96875 0.1328125 6.96875 0.1328125 7.96875 1.1328125 C8.04054964 2.65209288 8.05267007 4.17448732 8.03125 5.6953125 C8.02222656 6.52160156 8.01320313 7.34789062 8.00390625 8.19921875 C7.99230469 8.83730469 7.98070312 9.47539062 7.96875 10.1328125 C6.97875 10.4628125 5.98875 10.7928125 4.96875 11.1328125 C4.96875 11.7928125 4.96875 12.4528125 4.96875 13.1328125 C5.95875 13.4628125 6.94875 13.7928125 7.96875 14.1328125 C7.99564216 15.61188142 8.01509621 17.09108733 8.03125 18.5703125 C8.04285156 19.39402344 8.05445313 20.21773437 8.06640625 21.06640625 C7.96875 23.1328125 7.96875 23.1328125 6.96875 24.1328125 C5.47136876 24.2307182 3.96932108 24.26256114 2.46875 24.2578125 C1.6540625 24.26039062 0.839375 24.26296875 0 24.265625 C-2.03125 24.1328125 -2.03125 24.1328125 -3.03125 23.1328125 C-3.10304964 21.61353212 -3.11517007 20.09113768 -3.09375 18.5703125 C-3.08472656 17.74402344 -3.07570313 16.91773437 -3.06640625 16.06640625 C-3.05480469 15.42832031 -3.04320312 14.79023438 -3.03125 14.1328125 C-1.38125 13.4728125 0.26875 12.8128125 1.96875 12.1328125 C1.96875 11.1428125 1.96875 10.1528125 1.96875 9.1328125 C2.95875 8.4728125 3.94875 7.8128125 4.96875 7.1328125 C4.63875 5.8128125 4.30875 4.4928125 3.96875 3.1328125 C2.97875 3.1328125 1.98875 3.1328125 0.96875 3.1328125 C0.63875 5.4428125 0.30875 7.7528125 -0.03125 10.1328125 C-1.02125 10.4628125 -2.01125 10.7928125 -3.03125 11.1328125 C-3.05813151 9.48706684 -3.07759123 7.84119837 -3.09375 6.1953125 C-3.10535156 5.27878906 -3.11695313 4.36226563 -3.12890625 3.41796875 C-3.00402422 0.49572926 -2.91184986 0.19039018 0 0 Z M0.96875 15.1328125 C-0.32758621 16.19926365 -0.32758621 16.19926365 -0.09375 18.6953125 C-0.073125 19.4996875 -0.0525 20.3040625 -0.03125 21.1328125 C1.86054203 21.8142948 1.86054203 21.8142948 3.96875 22.1328125 C4.62875 21.4728125 5.28875 20.8128125 5.96875 20.1328125 C5.6502323 18.02460453 5.6502323 18.02460453 4.96875 16.1328125 C3.02271726 15.54211236 3.02271726 15.54211236 0.96875 15.1328125 Z " fill="#000000" transform="translate(16.03125,-0.1328125)"/>
</svg>
